<mxfile host="app.diagrams.net" modified="2023-05-13T09:23:42.855Z" agent="Mozilla/5.0 (Windows NT 10.0; Win64; x64) AppleWebKit/537.36 (KHTML, like Gecko) Chrome/113.0.0.0 Safari/537.36 Edg/113.0.1774.35" version="21.3.0" etag="EWyLEA_l72NI-rCqTX80" type="github">
  <diagram name="第 1 页" id="7QikfZELAY4JY_7wGi1M">
    <mxGraphModel>
      <root>
        <mxCell id="0" />
        <mxCell id="1" parent="0" />
      </root>
    </mxGraphModel>
  </diagram>
</mxfile>
